<?xml version="1.0" encoding="utf-8"?>
<!-- Generator: Adobe Illustrator 20.1.0, SVG Export Plug-In . SVG Version: 6.00 Build 0)  -->
<svg version="1.1" id="Layer_1" xmlns="http://www.w3.org/2000/svg" xmlns:xlink="http://www.w3.org/1999/xlink" x="0px" y="0px"
	 viewBox="0 0 61.9 61.9" style="enable-background:new 0 0 61.9 61.9;" xml:space="preserve">
<style type="text/css">
	.st0{display:none;}
	.st1{display:inline;}
	.st2{fill:#D2232A;}
	.st3{fill:#FFFFFF;}
</style>
<g class="st0">
	<path class="st1" d="M-44.3,76.5h6.1c5,0,8.4,3.4,8.4,7.8v0c0,4.4-3.4,7.9-8.4,7.9h-6.1V76.5z M-40.8,79.6v9.5h2.7
		c2.8,0,4.8-1.9,4.8-4.7v0c0-2.8-1.9-4.8-4.8-4.8H-40.8z"/>
	<path class="st1" d="M-27.6,86.3L-27.6,86.3c0-3.5,2.5-6.3,6-6.3c4,0,5.9,3.1,5.9,6.6c0,0.3,0,0.6,0,0.9h-8.4
		c0.3,1.6,1.4,2.4,3,2.4c1.1,0,2-0.4,2.9-1.2l2,1.7c-1.1,1.4-2.7,2.3-4.9,2.3C-24.9,92.5-27.6,90-27.6,86.3z M-19.1,85.3
		c-0.2-1.5-1.1-2.6-2.5-2.6c-1.4,0-2.3,1-2.6,2.6H-19.1z"/>
	<path class="st1" d="M-14.2,90.7l1.5-2.3c1.3,0.9,2.7,1.4,3.8,1.4c1,0,1.4-0.4,1.4-0.9v0c0-0.7-1.2-1-2.5-1.4
		c-1.7-0.5-3.6-1.3-3.6-3.6v0c0-2.5,2-3.8,4.4-3.8c1.5,0,3.2,0.5,4.5,1.4L-6,83.8c-1.2-0.7-2.4-1.1-3.3-1.1c-0.8,0-1.3,0.4-1.3,0.8
		v0c0,0.7,1.1,1,2.5,1.4c1.7,0.6,3.6,1.4,3.6,3.6v0c0,2.7-2,3.9-4.6,3.9C-10.7,92.5-12.6,91.9-14.2,90.7z"/>
	<path class="st1" d="M-1.8,75.8h3.6v3h-3.6V75.8z M-1.8,80.2h3.4v12.1h-3.4V80.2z"/>
	<path class="st1" d="M5,94.7l1.2-2.6c1.2,0.7,2.5,1.1,4.1,1.1c2.3,0,3.4-1.1,3.4-3.3v-0.6c-1,1.2-2.1,2-3.9,2c-2.8,0-5.4-2-5.4-5.6
		v0C4.3,82,6.9,80,9.7,80c1.9,0,3,0.8,3.9,1.8v-1.6H17v9.3c0,2.2-0.5,3.7-1.5,4.8c-1.1,1.1-2.9,1.6-5.2,1.6
		C8.3,95.9,6.5,95.5,5,94.7z M13.6,85.6L13.6,85.6c0-1.7-1.3-2.8-3-2.8c-1.7,0-2.9,1.1-2.9,2.8v0c0,1.7,1.3,2.8,2.9,2.8
		C12.4,88.4,13.6,87.3,13.6,85.6z"/>
	<path class="st1" d="M20.1,80.2h3.4v1.7c0.8-1,1.8-1.9,3.5-1.9c2.6,0,4.1,1.7,4.1,4.5v7.8h-3.4v-6.7c0-1.6-0.8-2.5-2.1-2.5
		c-1.3,0-2.1,0.8-2.1,2.5v6.7h-3.4V80.2z"/>
	<path class="st1" d="M43.1,76.5h3.2l7.4,9.7v-9.7h3.4v15.8h-3l-7.6-10v10h-3.4V76.5z"/>
	<path class="st1" d="M59.9,86.3L59.9,86.3c0-3.5,2.8-6.3,6.6-6.3c3.7,0,6.5,2.8,6.5,6.2v0c0,3.5-2.8,6.3-6.6,6.3
		C62.7,92.5,59.9,89.8,59.9,86.3z M69.6,86.3L69.6,86.3c0-1.8-1.3-3.4-3.2-3.4c-2,0-3.1,1.5-3.1,3.3v0c0,1.8,1.3,3.3,3.2,3.3
		C68.4,89.6,69.6,88.1,69.6,86.3z"/>
	<path class="st1" d="M76,88.8v-5.7h-1.4v-2.9H76v-3.1h3.4v3.1h2.8v2.9h-2.8v5.2c0,0.8,0.3,1.2,1.1,1.2c0.6,0,1.2-0.2,1.7-0.4v2.7
		c-0.7,0.4-1.6,0.7-2.7,0.7C77.4,92.5,76,91.6,76,88.8z"/>
	<path class="st1" d="M83.9,86.3L83.9,86.3c0-3.5,2.5-6.3,6-6.3c4,0,5.9,3.1,5.9,6.6c0,0.3,0,0.6,0,0.9h-8.4c0.3,1.6,1.4,2.4,3,2.4
		c1.1,0,2-0.4,2.9-1.2l2,1.7c-1.1,1.4-2.7,2.3-4.9,2.3C86.6,92.5,83.9,90,83.9,86.3z M92.4,85.3c-0.2-1.5-1.1-2.6-2.5-2.6
		c-1.4,0-2.3,1-2.6,2.6H92.4z"/>
	<path class="st1" d="M97.3,90.7l1.5-2.3c1.3,0.9,2.7,1.4,3.8,1.4c1,0,1.4-0.4,1.4-0.9v0c0-0.7-1.2-1-2.5-1.4
		c-1.7-0.5-3.6-1.3-3.6-3.6v0c0-2.5,2-3.8,4.4-3.8c1.5,0,3.2,0.5,4.5,1.4l-1.3,2.4c-1.2-0.7-2.4-1.1-3.3-1.1c-0.8,0-1.3,0.4-1.3,0.8
		v0c0,0.7,1.1,1,2.5,1.4c1.7,0.6,3.6,1.4,3.6,3.6v0c0,2.7-2,3.9-4.6,3.9C100.8,92.5,98.9,91.9,97.3,90.7z"/>
</g>
<circle class="st2" cx="30.9" cy="30.9" r="30.9"/>
<path class="st3" d="M48,14.2h-1.4h-1v1v24.9l-5.2-6.5l-15.2-19L25,14.2h-0.5H14.2h-1v1v30.3v1h1h9H24l0.6,0
	c6.6-0.2,12.1-3.5,14.8-8.7l6.7,8.4l0.3,0.4h0.5H48h1v-1V15.2v-1H48z M24.5,43.1l-1.4,0l-6.5,0V17.6h6.7l13.6,17.1
	C35.2,39.7,30.5,43,24.5,43.1z"/>
</svg>
