<?xml version="1.0" encoding="UTF-8"?>
<svg viewBox="0 0 800 800" version="1.1" xmlns="http://www.w3.org/2000/svg" xmlns:xlink="http://www.w3.org/1999/xlink">
    <g id="Group">
        <circle id="Oval" fill="#FFFFFF" cx="400" cy="400" r="400"></circle>
        <path d="M231,646.085356 C231,645.692267 282.054865,594.345429 344.455256,531.981343 C406.855647,469.617199 457.910513,418.264139 457.910513,417.863433 C457.910513,417.462668 406.855647,366.109608 344.455256,303.745522 C282.054865,241.381378 231,189.859046 231,189.251386 C231,187.829114 244.86109,174 246.286612,174 C246.879954,174 302.183166,228.787471 369.182684,295.75 L491,417.5 L369.182684,539.25 C302.183166,606.212471 246.86791,661 246.259965,661 C245.652019,661 241.969843,657.804989 238.077281,653.900034 C234.184776,649.995079 231,646.478445 231,646.085356 Z" id="Shape" fill="#BDBCBD" fill-rule="nonzero" transform="translate(361.000000, 417.500000) scale(-1, 1) translate(-361.000000, -417.500000) "></path>
    </g>
</svg>