<?xml version="1.0" encoding="UTF-8"?>
<svg viewBox="0 0 800 800" xmlns="http://www.w3.org/2000/svg" xmlns:xlink="http://www.w3.org/1999/xlink">
    <g id="Group">
        <circle id="Oval" fill="#FFFFFF" cx="400" cy="400" r="400"></circle>
        <path d="M317.077281,640.900034 C313.184776,636.995079 310,633.478445 310,633.085356 C310,632.692267 361.054865,581.345429 423.455256,518.981343 C485.855647,456.617199 536.910513,405.264139 536.910513,404.863433 C536.910513,404.462668 485.855647,353.109608 423.455256,290.745522 C361.054865,228.381378 310,176.859046 310,176.251386 C310,174.829114 323.86109,161 325.286612,161 C325.879954,161 381.183166,215.787471 448.182684,282.75 L570,404.5 L448.182684,526.25 C381.183166,593.212471 325.86791,648 325.259965,648 C324.652019,648 320.969843,644.804989 317.077281,640.900034 L317.077281,640.900034 Z" id="Shape" fill="#BDBCBD" fill-rule="nonzero"></path>
    </g>
</svg>