<?xml version="1.0" encoding="UTF-8"?>
<svg width="642px" height="281px" viewBox="0 0 642 281" version="1.1" xmlns="http://www.w3.org/2000/svg" xmlns:xlink="http://www.w3.org/1999/xlink">
    <!-- Generator: Sketch 47.1 (45422) - http://www.bohemiancoding.com/sketch -->
    <title>viso</title>
    <desc>Created with Sketch.</desc>
    <defs></defs>
    <g id="Page-1" stroke="none" stroke-width="1" fill="none" fill-rule="evenodd">
        <g id="viso" fill="#000000">
            <path d="M0,3.6556701 L67.9621928,3.6556701 L116.506616,83.6742268 L163.837429,3.6556701 L232.204159,3.6556701 L116.911153,195.781443 L0,3.6556701 Z M241.508507,3.6556701 L292.075614,3.6556701 L292.075614,194.156701 L241.508507,194.156701 L241.508507,3.6556701 Z M435.6862,27.214433 L409.795841,50.3670103 C402.918715,45.4927835 397.255198,41.8371134 392.400756,39.4 C387.546314,36.9628866 381.478261,35.7443299 375.005671,35.7443299 C359.228733,35.7443299 351.137996,41.4309278 351.137996,53.2103093 C351.137996,61.7402062 361.251418,69.8639175 381.478261,77.5814433 C401.705104,85.7051546 416.268431,94.2350515 425.168242,103.57732 C434.068053,112.919588 438.517958,124.292784 438.517958,137.696907 C438.517958,153.538144 432.045369,166.942268 419.504726,178.721649 C406.559546,190.501031 391.591682,196.187629 374.601134,196.187629 C348.306238,196.187629 326.865784,184.002062 309.875236,159.630928 L340.620038,144.602062 C351.542533,155.162887 362.465028,160.443299 374.196597,160.443299 C382.287335,160.443299 389.568998,158.412371 395.637051,153.94433 C401.705104,149.476289 404.941399,144.195876 404.941399,138.509278 C404.941399,127.948454 394.42344,118.606186 372.982987,110.482474 C351.542533,102.358763 336.979206,93.828866 328.888469,85.2989691 C320.797732,76.7690722 316.752363,66.2082474 316.752363,53.6164948 C316.752363,38.1814433 322.415879,25.1835052 334.147448,15.028866 C344.665406,5.28041237 359.228733,0 376.623819,0 C394.42344,0 413.84121,8.93608247 435.6862,27.214433 L435.6862,27.214433 Z M544.506616,1.2185567 C490.703214,1.2185567 447.013233,45.0865979 447.013233,99.1092784 C447.013233,153.131959 490.703214,197 544.506616,197 C598.310019,197 642,153.131959 642,99.1092784 C642,45.0865979 598.310019,1.2185567 544.506616,1.2185567 L544.506616,1.2185567 Z M544.506616,172.628866 C504.05293,172.628866 471.285444,139.727835 471.285444,99.1092784 C471.285444,58.4907216 504.05293,25.5896907 544.506616,25.5896907 C584.960302,25.5896907 617.727788,58.4907216 617.727788,99.1092784 C617.727788,139.727835 584.960302,172.628866 544.506616,172.628866 L544.506616,172.628866 Z" id="Shape" fill-rule="nonzero"></path>
            <path d="M147.715088,277.8685 L164.154588,277.8685 L164.154588,280 L145.216088,280 L145.216088,245.3325 L147.715088,245.3325 L147.715088,277.8685 Z M178.625998,280 L176.102498,280 L176.102498,245.3325 L178.625998,245.3325 L178.625998,280 Z M209.659407,278.3585 C210.851747,278.3585 211.937902,278.297251 212.917907,278.17475 C213.897912,278.052249 214.808486,277.868501 215.649657,277.6235 C216.490828,277.378499 217.291153,277.080418 218.050657,276.72925 C218.810161,276.378082 219.573737,275.982002 220.341407,275.541 L220.341407,266.2065 L213.677407,266.2065 C213.49774,266.2065 213.346658,266.149334 213.224157,266.035 C213.101657,265.920666 213.040407,265.790001 213.040407,265.643 L213.040407,264.271 L222.619907,264.271 L222.619907,276.5945 C221.754236,277.198836 220.855912,277.737831 219.924907,278.2115 C218.993903,278.685169 217.997579,279.081248 216.935907,279.39975 C215.874235,279.718252 214.730913,279.963249 213.505907,280.13475 C212.280901,280.306251 210.941581,280.392 209.487907,280.392 C206.988895,280.392 204.706334,279.971421 202.640157,279.13025 C200.57398,278.289079 198.801831,277.096758 197.323657,275.55325 C195.845483,274.009742 194.698078,272.143678 193.881407,269.955 C193.064737,267.766322 192.656407,265.33268 192.656407,262.654 C192.656407,259.97532 193.064737,257.545761 193.881407,255.36525 C194.698078,253.184739 195.857733,251.322758 197.360407,249.77925 C198.863081,248.235742 200.688313,247.043421 202.836157,246.20225 C204.984001,245.361079 207.389061,244.9405 210.051407,244.9405 C211.374414,244.9405 212.595318,245.030332 213.714157,245.21 C214.832996,245.389668 215.874236,245.655082 216.837907,246.00625 C217.801579,246.357418 218.699903,246.790247 219.532907,247.30475 C220.365911,247.819253 221.166237,248.41133 221.933907,249.081 L221.272407,250.159 C221.125407,250.404001 220.921242,250.5265 220.659907,250.5265 C220.512907,250.5265 220.374075,250.493834 220.243407,250.4285 C219.998406,250.3305 219.64316,250.101835 219.177657,249.7425 C218.712155,249.383165 218.083328,249.007502 217.291157,248.6155 C216.498987,248.223498 215.506747,247.872335 214.314407,247.562 C213.122068,247.251665 211.676582,247.0965 209.977907,247.0965 C207.723896,247.0965 205.690416,247.45583 203.877407,248.1745 C202.064398,248.89317 200.51683,249.92216 199.234657,251.2615 C197.952484,252.60084 196.964327,254.234157 196.270157,256.1615 C195.575987,258.088843 195.228907,260.252988 195.228907,262.654 C195.228907,265.104012 195.58007,267.300824 196.282407,269.2445 C196.984744,271.188176 197.968818,272.833743 199.234657,274.18125 C200.500497,275.528757 202.019482,276.56183 203.791657,277.2805 C205.563833,277.99917 207.51973,278.3585 209.659407,278.3585 Z M263.110317,280 L260.586817,280 L260.586817,263.389 L238.879817,263.389 L238.879817,280 L236.356317,280 L236.356317,245.3325 L238.879817,245.3325 L238.879817,261.5025 L260.586817,261.5025 L260.586817,245.3325 L263.110317,245.3325 L263.110317,280 Z M300.954726,245.3325 L300.954726,247.464 L288.778226,247.464 L288.778226,280 L286.279226,280 L286.279226,247.464 L274.029226,247.464 L274.029226,245.3325 L300.954726,245.3325 Z M329.677045,280 L327.153545,280 L327.153545,245.3325 L329.677045,245.3325 L329.677045,280 Z M362.572455,249.5465 C362.425454,249.824168 362.213123,249.963 361.935455,249.963 C361.72312,249.963 361.44954,249.811918 361.114705,249.50975 C360.77987,249.207582 360.326624,248.872752 359.754955,248.50525 C359.183285,248.137748 358.468709,247.798835 357.611205,247.4885 C356.7537,247.178165 355.696128,247.023 354.438455,247.023 C353.180782,247.023 352.07421,247.202665 351.118705,247.562 C350.1632,247.921335 349.362875,248.41133 348.717705,249.032 C348.072535,249.65267 347.58254,250.371329 347.247705,251.188 C346.91287,252.004671 346.745455,252.862162 346.745455,253.7605 C346.745455,254.936506 346.994536,255.908329 347.492705,256.676 C347.990874,257.443671 348.648284,258.096997 349.464955,258.636 C350.281625,259.175003 351.208533,259.628248 352.245705,259.99575 C353.282877,260.363252 354.348616,260.726665 355.442955,261.086 C356.537294,261.445335 357.603033,261.841415 358.640205,262.27425 C359.677377,262.707085 360.604284,263.250163 361.420955,263.9035 C362.237625,264.556837 362.895036,265.361245 363.393205,266.31675 C363.891374,267.272255 364.140455,268.460493 364.140455,269.8815 C364.140455,271.335174 363.891374,272.703077 363.393205,273.98525 C362.895036,275.267423 362.172293,276.382162 361.224955,277.3295 C360.277617,278.276838 359.117962,279.024081 357.745955,279.57125 C356.373948,280.118419 354.805964,280.392 353.041955,280.392 C350.755277,280.392 348.78713,279.987754 347.137455,279.17925 C345.48778,278.370746 344.042294,277.264174 342.800955,275.8595 L343.486955,274.7815 C343.682956,274.536499 343.91162,274.414 344.172955,274.414 C344.319955,274.414 344.507787,274.511999 344.736455,274.708 C344.965123,274.904001 345.242786,275.144915 345.569455,275.43075 C345.896123,275.716585 346.288119,276.026915 346.745455,276.36175 C347.20279,276.696585 347.733618,277.006915 348.337955,277.29275 C348.942291,277.578585 349.636451,277.819499 350.420455,278.0155 C351.204459,278.211501 352.094616,278.3095 353.090955,278.3095 C354.462962,278.3095 355.687949,278.101252 356.765955,277.68475 C357.84396,277.268248 358.754534,276.70067 359.497705,275.982 C360.240875,275.26333 360.808453,274.409922 361.200455,273.42175 C361.592457,272.433578 361.788455,271.376006 361.788455,270.249 C361.788455,269.023994 361.539374,268.015421 361.041205,267.22325 C360.543036,266.431079 359.885625,265.769586 359.068955,265.23875 C358.252284,264.707914 357.325377,264.262835 356.288205,263.9035 C355.251033,263.544165 354.185294,263.193002 353.090955,262.85 C351.996616,262.506998 350.930877,262.123169 349.893705,261.6985 C348.856533,261.273831 347.929625,260.730753 347.112955,260.06925 C346.296284,259.407747 345.638874,258.582922 345.140705,257.59475 C344.642536,256.606578 344.393455,255.369341 344.393455,253.883 C344.393455,252.723328 344.613953,251.604505 345.054955,250.5265 C345.495957,249.448495 346.141117,248.497087 346.990455,247.67225 C347.839792,246.847413 348.889198,246.185919 350.138705,245.68775 C351.388211,245.189581 352.81328,244.9405 354.413955,244.9405 C356.21063,244.9405 357.823531,245.22633 359.252705,245.798 C360.681879,246.36967 361.984449,247.243494 363.160455,248.4195 L362.572455,249.5465 Z M393.205774,277.8685 L409.645274,277.8685 L409.645274,280 L390.706774,280 L390.706774,245.3325 L393.205774,245.3325 L393.205774,277.8685 Z M424.116683,280 L421.593183,280 L421.593183,245.3325 L424.116683,245.3325 L424.116683,280 Z M461.030093,245.3325 L461.030093,247.415 L442.777593,247.415 L442.777593,261.9925 L458.580093,261.9925 L458.580093,264.075 L442.777593,264.075 L442.777593,280 L440.254093,280 L440.254093,245.3325 L461.030093,245.3325 Z M493.974502,245.3325 L493.974502,247.415 L475.722002,247.415 L475.722002,261.429 L490.912002,261.429 L490.912002,263.4625 L475.722002,263.4625 L475.722002,277.9175 L493.974502,277.9175 L493.974502,280 L473.198502,280 L473.198502,245.3325 L493.974502,245.3325 Z" id="LIGHT-IS-LIFE"></path>
        </g>
    </g>
</svg>